#!OML:ASF I:\Random Stuff\random\construction\7_22_03\Session 2\subj1.ASF
:FULLY-SPECIFIED
:DEGREES
941
root -7.55302 17.7299 -4.57445 -353.804 90.9074 -364.361
lowerback 4.49382 -2.00608 -2.28639
upperback 3.00032 -2.6884 -0.393089
thorax 0.652709 -1.34729 0.977584
lowerneck -20.7579 -7.15979 -6.85246
upperneck 42.764 -8.16908 3.3392
head 21.2438 -3.28314 1.19502
rclavicle 3.18055e-015 -7.15625e-015
rhumerus -20.4101 24.5124 -71.4414
rradius 51.9587
rwrist 2.89453
rhand -31.7735 19.9203
rfingers 7.12502
rthumb -5.03007 -10
lclavicle 3.18055e-015 -7.15625e-015
lhumerus -15.6022 -35.2037 91.9598
lradius 43.2359
lwrist -9.35846
lhand -18.5161 48.0163
lfingers 7.12502
lthumb 7.77221 77.8534
rfemur -16.7803 9.11617 15.318
rtibia 19.009
rfoot -12.6128 -6.42715
rtoes -26.0657
lfemur -15.5936 -5.8236 -11.7542
ltibia 22.3155
lfoot -11.2491 11.11
ltoes -36.9816
942
root -7.54521 17.7341 -4.49438 -368.686 90.8425 -379.057
lowerback 4.49539 -2.09216 -1.97918
upperback 2.96254 -2.79546 -0.194727
thorax 0.611159 -1.39869 1.01411
lowerneck -20.6655 -7.05231 -6.75018
upperneck 42.6843 -7.87019 2.94959
head 21.0872 -3.21218 1.04934
rclavicle -2.56432e-014 1.59028e-015
rhumerus -19.5356 24.0963 -71.2966
rradius 51.2817
rwrist 3.9092
rhand -32.131 20.551
rfingers 7.12502
rthumb -5.37522 -9.3608
lclavicle -2.56432e-014 1.59028e-015
lhumerus -15.9533 -34.2783 91.8769
lradius 43.5058
lwrist -9.27586
lhand -18.0031 47.5771
lfingers 7.12502
lthumb 8.26736 77.3954
rfemur -16.5663 9.11651 15.4132
rtibia 18.998
rfoot -12.618 -6.27377
rtoes -25.8788
lfemur -15.3667 -5.69664 -11.7587
ltibia 22.3074
lfoot -10.6962 11.1483
ltoes -37.3367
943
root -7.5371 17.7397 -4.41347 -389.599 90.8523 -399.806
lowerback 4.45729 -2.13963 -1.74992
upperback 2.93583 -2.85199 -0.0401716
thorax 0.602995 -1.42567 1.04557
lowerneck -20.6712 -7.02286 -6.63251
upperneck 42.7715 -7.72863 2.64082
head 21.1028 -3.17842 0.90553
rclavicle 2.25621e-014 -7.55382e-015
rhumerus -18.8159 23.6104 -71.2237
rradius 50.6683
rwrist 5.14782
rhand -32.6329 21.266
rfingers 7.12502
rthumb -5.8598 -8.63292
lclavicle 2.25621e-014 -7.55382e-015
lhumerus -16.2632 -33.486 91.7831
lradius 43.6286
lwrist -9.28629
lhand -17.7241 47.5851
lfingers 7.12502
lthumb 8.53656 77.3925
rfemur -16.381 9.16151 15.4238
rtibia 18.967
rfoot -12.5953 -6.11201
rtoes -25.7311
lfemur -15.1672 -5.59996 -11.8356
ltibia 22.308
lfoot -10.1162 11.265
ltoes -37.7876
944
root -7.52829 17.748 -4.3312 -403.946 90.9897 -413.98
lowerback 4.42197 -2.16473 -1.48933
upperback 2.94423 -2.87625 0.114931
thorax 0.626774 -1.43602 1.05818
lowerneck -20.7256 -7.04514 -6.63962
upperneck 42.8662 -7.67445 2.47031
head 21.1693 -3.17725 0.832111
rclavicle 2.33075e-014 2.78299e-015
rhumerus -18.1812 23.0004 -71.1981
rradius 49.9626
rwrist 6.17413
rhand -33.175 22.3869
rfingers 7.12502
rthumb -6.38316 -7.49687
lclavicle 2.33075e-014 2.78299e-015
lhumerus -16.4212 -32.8595 91.6619
lradius 43.6063
lwrist -9.37072
lhand -17.4642 47.6966
lfingers 7.12502
lthumb 8.78745 77.4937
rfemur -16.1975 9.35697 15.4401
rtibia 18.9773
rfoot -12.5583 -6.12433
rtoes -25.4945
lfemur -14.9451 -5.40966 -11.8846
ltibia 22.2696
lfoot -9.66217 11.1901
ltoes -37.6897
945
root -7.52352 17.7568 -4.24778 -411.09 91.1804 -420.923
lowerback 4.49035 -2.17212 -1.20022
upperback 2.94035 -2.87678 0.283415
thorax 0.578763 -1.43332 1.07243
lowerneck -20.6694 -7.0514 -6.76588
upperneck 42.8291 -7.59974 2.40851
head 21.1254 -3.17779 0.842409
rclavicle 2.65874e-015 -1.57537e-014
rhumerus -17.5767 22.4346 -71.1662
rradius 49.0851
rwrist 6.79055
rhand -33.8238 23.8697
rfingers 7.12502
rthumb -7.00945 -5.99424
lclavicle 2.65874e-015 -1.57537e-014
lhumerus -16.5264 -32.279 91.5968
lradius 43.5566
lwrist -9.21675
lhand -16.9586 48.0187
lfingers 7.12502
lthumb 9.27529 77.7947
rfemur -15.9874 9.6137 15.4889
rtibia 19.0087
rfoot -12.5211 -6.24292
rtoes -24.9924
lfemur -14.723 -5.11462 -11.8978
ltibia 22.2095
lfoot -9.21344 10.9777
ltoes -37.2346
946
root -7.52143 17.7658 -4.1644 -415.68 91.4415 -425.317
lowerback 4.58362 -2.1549 -0.991239
upperback 2.93402 -2.84651 0.444415
thorax 0.517325 -1.41602 1.12363
lowerneck -20.5856 -7.07941 -6.84217
upperneck 42.7456 -7.58021 2.33386
head 21.039 -3.19359 0.824423
rclavicle 1.0548e-014 2.93207e-015
rhumerus -17.0486 21.943 -71.1063
rradius 48.2142
rwrist 7.24045
rhand -34.4101 25.1334
rfingers 7.12502
rthumb -7.57539 -4.71093
lclavicle 1.0548e-014 2.93207e-015
lhumerus -16.6486 -31.6076 91.5735
lradius 43.5307
lwrist -8.78495
lhand -16.5525 48.4825
lfingers 7.12502
lthumb 9.66716 78.2407
rfemur -15.7513 9.69641 15.5154
rtibia 19.0118
rfoot -12.5126 -6.26246
rtoes -24.4103
lfemur -14.5768 -4.61896 -11.9671
ltibia 22.1852
lfoot -8.61241 10.5164
ltoes -37.0402
947
root -7.51966 17.7763 -4.08193 -417.576 91.7151 -427.053
lowerback 4.61851 -2.14357 -0.815072
upperback 2.95654 -2.82357 0.620309
thorax 0.520718 -1.4032 1.20544
lowerneck -20.5811 -7.10874 -6.77377
upperneck 42.6794 -7.54734 2.09322
head 20.9625 -3.20293 0.696902
rclavicle 4.77083e-015 7.15625e-015
rhumerus -16.6217 21.5448 -70.9983
rradius 47.5582
rwrist 7.89566
rhand -34.7531 26.0251
rfingers 7.12502
rthumb -7.90646 -3.80704
lclavicle 4.77083e-015 7.15625e-015
lhumerus -16.686 -30.888 91.494
lradius 43.4529
lwrist -8.25198
lhand -16.7115 48.4255
lfingers 7.12502
lthumb 9.51374 78.1907
rfemur -15.535 9.71098 15.5511
rtibia 19.0033
rfoot -12.5045 -6.27052
rtoes -23.7939
lfemur -14.4944 -4.02918 -12.0358
ltibia 22.1954
lfoot -7.84099 9.95202
ltoes -37.6123
948
root -7.52024 17.7873 -4.00124 -418.712 91.9527 -428.074
lowerback 4.65117 -2.13699 -0.582792
upperback 2.96644 -2.80479 0.780628
thorax 0.508946 -1.39141 1.24038
lowerneck -20.563 -7.14044 -6.72807
upperneck 42.6038 -7.54631 1.93035
head 20.8863 -3.21771 0.606499
rclavicle 8.24956e-015 -6.55989e-015
rhumerus -16.2543 21.1802 -70.9179
rradius 46.9735
rwrist 8.87241
rhand -34.8562 26.8065
rfingers 7.12502
rthumb -8.00601 -3.0219
lclavicle 8.24956e-015 -6.55989e-015
lhumerus -16.7183 -30.2397 91.359
lradius 43.4018
lwrist -7.64044
lhand -17.0065 48.3934
lfingers 7.12502
lthumb 9.22902 78.1714
rfemur -15.3947 9.74453 15.6056
rtibia 18.9947
rfoot -12.4823 -6.27615
rtoes -22.9315
lfemur -14.4506 -3.6913 -12.0447
ltibia 22.2272
lfoot -7.15797 9.67019
ltoes -37.9599
949
root -7.52251 17.7967 -3.92202 -419.074 92.1325 -428.347
lowerback 4.69466 -2.09526 -0.247696
upperback 2.96563 -2.73504 0.917851
thorax 0.472876 -1.35238 1.19296
lowerneck -20.4978 -7.21418 -6.75916
upperneck 42.4669 -7.66335 1.93779
head 20.7822 -3.26755 0.589648
rclavicle -4.53229e-014 4.77083e-015
rhumerus -15.9181 20.7202 -70.8699
rradius 46.3554
rwrist 10.0739
rhand -34.9088 27.4817
rfingers 7.12502
rthumb -8.05677 -2.34469
lclavicle -4.53229e-014 4.77083e-015
lhumerus -16.7773 -29.6135 91.2224
lradius 43.4405
lwrist -7.41381
lhand -16.8251 48.8018
lfingers 7.12502
lthumb 9.40407 78.572
rfemur -15.2686 9.73877 15.7257
rtibia 18.9469
rfoot -12.389 -6.24374
rtoes -21.5738
lfemur -14.4831 -3.43524 -11.96
ltibia 22.3182
lfoot -6.64628 9.407
ltoes -37.4469
950
root -7.52605 17.8032 -3.84454 -417.832 92.295 -427.01
lowerback 4.77271 -2.08545 0.0924243
upperback 2.94978 -2.70617 1.09306
thorax 0.405126 -1.3338 1.18491
lowerneck -20.3928 -7.24637 -6.7685
upperneck 42.2873 -7.68851 1.86264
head 20.6223 -3.2933 0.550323
rclavicle -1.27222e-014 1.03368e-014
rhumerus -15.6224 20.4621 -70.8007
rradius 45.8069
rwrist 11.0503
rhand -35.1276 28.1004
rfingers 7.12502
rthumb -8.26794 -1.71785
lclavicle -1.27222e-014 1.03368e-014
lhumerus -16.9065 -28.8057 91.1175
lradius 43.5321
lwrist -7.56159
lhand -16.6137 49.3024
lfingers 7.12502
lthumb 9.60812 79.0633
rfemur -15.096 9.76877 15.8903
rtibia 18.8492
rfoot -12.265 -6.32353
rtoes -20.8332
lfemur -14.5858 -3.00714 -11.8353
ltibia 22.4745
lfoot -6.10563 8.8906
ltoes -36.9933
951
root -7.53063 17.8085 -3.77001 -416.502 92.5597 -425.555
lowerback 4.89034 -2.11813 0.315704
upperback 2.92778 -2.73656 1.26998
thorax 0.31596 -1.34631 1.2481
lowerneck -20.2449 -7.29291 -6.86141
upperneck 42.1157 -7.71224 1.81152
head 20.4661 -3.32917 0.539631
rclavicle 6.75868e-015 -5.1684e-015
rhumerus -15.4021 20.3271 -70.7438
rradius 45.3283
rwrist 11.6294
rhand -35.3561 28.702
rfingers 7.12502
rthumb -8.48846 -1.10738
lclavicle 6.75868e-015 -5.1684e-015
lhumerus -17.1494 -28.1462 91.1069
lradius 43.6432
lwrist -7.08986
lhand -17.3362 50.0533
lfingers 7.12502
lthumb 8.91088 79.8451
rfemur -14.881 9.82756 15.954
rtibia 18.73
rfoot -12.2537 -6.50681
rtoes -21.7295
lfemur -14.6856 -2.66564 -11.8193
ltibia 22.6703
lfoot -5.45921 8.40875
ltoes -36.786
952
root -7.53287 17.8136 -3.69324 -414.135 92.8442 -423.034
lowerback 4.92361 -2.14455 0.513342
upperback 2.96903 -2.75936 1.44751
thorax 0.339868 -1.35506 1.32113
lowerneck -20.1345 -7.38336 -7.02059
upperneck 41.9187 -7.81818 1.84888
head 20.3238 -3.39483 0.56394
rclavicle 0 4.77083e-015
rhumerus -15.2221 20.2038 -70.6867
rradius 44.9709
rwrist 11.9139
rhand -35.6477 29.0783
rfingers 7.12502
rthumb -8.76981 -0.719477
lclavicle 0 4.77083e-015
lhumerus -17.31 -27.5965 91.112
lradius 43.7839
lwrist -6.21738
lhand -18.3575 50.8413
lfingers 7.12502
lthumb 7.92529 80.6727
rfemur -14.6117 9.97795 16.0402
rtibia 18.6141
rfoot -12.1476 -6.8104
rtoes -21.6197
lfemur -14.7763 -2.47432 -11.7685
ltibia 22.8958
lfoot -4.8112 7.9824
ltoes -36.2869
953
root -7.53503 17.8183 -3.61624 -411.221 93.0865 -420.015
lowerback 4.85669 -2.16432 0.758915
upperback 3.04806 -2.77304 1.62606
thorax 0.455957 -1.35824 1.36312
lowerneck -20.0727 -7.46313 -7.09799
upperneck 41.7011 -7.92546 1.85004
head 20.1737 -3.45346 0.55404
rclavicle -5.32743e-014 -1.59028e-014
rhumerus -15.0348 20.3274 -70.5966
rradius 44.7435
rwrist 11.8407
rhand -36.0108 29.2346
rfingers 7.12502
rthumb -9.12021 -0.54824
lclavicle -5.32743e-014 -1.59028e-014
lhumerus -17.3411 -26.7762 90.9889
lradius 43.979
lwrist -5.81534
lhand -18.8187 51.2827
lfingers 7.12502
lthumb 7.48013 81.1305
rfemur -14.394 10.1456 16.1819
rtibia 18.5045
rfoot -11.9122 -7.10071
rtoes -19.5488
lfemur -14.9435 -2.21089 -11.6489
ltibia 23.1281
lfoot -4.16284 7.48031
ltoes -35.6335
954
root -7.5413 17.8244 -3.54735 -409.702 93.3125 -418.463
lowerback 4.84967 -2.15313 1.09236
upperback 3.06232 -2.74196 1.74995
thorax 0.464488 -1.3377 1.30217
lowerneck -19.9778 -7.5957 -7.1355
upperneck 41.5072 -8.12113 1.82364
head 20.0323 -3.54276 0.504459
rclavicle -7.55382e-015 5.56597e-015
rhumerus -14.9297 20.3163 -70.5482
rradius 44.5493
rwrist 11.8101
rhand -36.0775 29.3039
rfingers 7.12502
rthumb -9.18456 -0.476132
lclavicle -7.55382e-015 5.56597e-015
lhumerus -17.4483 -25.9547 90.8563
lradius 44.1102
lwrist -6.11625
lhand -19.1355 51.2812
lfingers 7.12502
lthumb 7.17435 81.1396
rfemur -14.2949 9.98763 16.2791
rtibia 18.3872
rfoot -11.8544 -7.00424
rtoes -17.9612
lfemur -15.1948 -1.78598 -11.6035
ltibia 23.3455
lfoot -3.47425 6.97323
ltoes -34.7305
955
root -7.54801 17.8332 -3.48113 -408.552 93.5281 -417.295
lowerback 4.91741 -2.15386 1.42142
upperback 3.01092 -2.72453 1.8714
thorax 0.364453 -1.32475 1.24634
lowerneck -19.9129 -7.73906 -7.25427
upperneck 41.4364 -8.30456 1.82926
head 19.991 -3.63114 0.487063
rclavicle -5.56597e-015 -4.21423e-014
rhumerus -14.7984 20.2125 -70.5495
rradius 44.1842
rwrist 11.8607
rhand -35.8537 29.303
rfingers 7.12502
rthumb -8.96865 -0.48641
lclavicle -5.56597e-015 -4.21423e-014
lhumerus -17.735 -25.0642 90.829
lradius 44.2174
lwrist -6.54269
lhand -19.3989 51.0178
lfingers 7.12502
lthumb 6.92013 80.8847
rfemur -14.2143 9.86095 16.3668
rtibia 18.2918
rfoot -11.8988 -6.93563
rtoes -17.3843
lfemur -15.4295 -1.42977 -11.5771
ltibia 23.5248
lfoot -2.86438 6.65639
ltoes -33.3235
